<?xml version="1.0" encoding="utf-8"?>
<svg width="180px" height="169px" viewbox="0 0 180 169" version="1.1" xmlns:xlink="http://www.w3.org/1999/xlink" xmlns="http://www.w3.org/2000/svg">
  <defs>
    <filter filterUnits="userSpaceOnUse" color-interpolation-filters="sRGB" id="filter_1">
      <feFlood flood-opacity="0" result="BackgroundImageFix" />
      <feBlend mode="normal" in="SourceGraphic" in2="BackgroundImageFix" result="shape" />
      <feColorMatrix in="SourceAlpha" type="matrix" values="0 0 0 0 0 0 0 0 0 0 0 0 0 0 0 0 0 0 127 0" result="hardAlpha" />
      <feOffset dx="-1" dy="-1" />
      <feGaussianBlur stdDeviation="1.5" />
      <feComposite in2="hardAlpha" operator="arithmetic" k2="-1" k3="1" />
      <feColorMatrix type="matrix" values="0 0 0 0 0.39215687 0 0 0 0 0.39215687 0 0 0 0 0.39215687 0 0 0 0.49803922 0" />
      <feBlend mode="normal" in2="shape" result="effect0_innerShadow" />
    </filter>
    <path d="M23.999 0L156.001 0Q156.59 0 157.179 0.0289078Q157.767 0.0578157 158.353 0.115562Q158.94 0.173308 159.522 0.259753Q160.105 0.346198 160.683 0.461134Q161.261 0.57607 161.832 0.71922Q162.404 0.86237 162.968 1.03339Q163.531 1.20441 164.086 1.40288Q164.641 1.60136 165.185 1.82681Q165.729 2.05227 166.262 2.30416Q166.794 2.55605 167.314 2.83377Q167.834 3.11149 168.339 3.41437Q168.844 3.71725 169.334 4.04456Q169.824 4.37187 170.297 4.72282Q170.77 5.07377 171.226 5.44752Q171.681 5.82127 172.118 6.21691Q172.554 6.61256 172.971 7.02914Q173.387 7.44573 173.783 7.88226Q174.179 8.31878 174.552 8.77419Q174.926 9.22961 175.277 9.70281Q175.628 10.176 175.955 10.6659Q176.283 11.1557 176.586 11.661Q176.888 12.1664 177.166 12.6859Q177.444 13.2055 177.696 13.7381Q177.948 14.2707 178.173 14.815Q178.399 15.3593 178.597 15.914Q178.796 16.4687 178.967 17.0325Q179.138 17.5962 179.281 18.1677Q179.424 18.7392 179.539 19.317Q179.654 19.8948 179.74 20.4776Q179.827 21.0604 179.884 21.6467Q179.942 22.233 179.971 22.8214Q180 23.4099 180 23.999L180 145.001Q180 145.59 179.971 146.179Q179.942 146.767 179.884 147.353Q179.827 147.94 179.74 148.522Q179.654 149.105 179.539 149.683Q179.424 150.261 179.281 150.832Q179.138 151.404 178.967 151.968Q178.796 152.531 178.597 153.086Q178.399 153.641 178.173 154.185Q177.948 154.729 177.696 155.262Q177.444 155.794 177.166 156.314Q176.888 156.834 176.586 157.339Q176.283 157.844 175.955 158.334Q175.628 158.824 175.277 159.297Q174.926 159.77 174.552 160.226Q174.179 160.681 173.783 161.118Q173.387 161.554 172.971 161.971Q172.554 162.387 172.118 162.783Q171.681 163.179 171.226 163.552Q170.77 163.926 170.297 164.277Q169.824 164.628 169.334 164.955Q168.844 165.283 168.339 165.586Q167.834 165.889 167.314 166.166Q166.794 166.444 166.262 166.696Q165.729 166.948 165.185 167.173Q164.641 167.399 164.086 167.597Q163.531 167.796 162.968 167.967Q162.404 168.138 161.832 168.281Q161.261 168.424 160.683 168.539Q160.105 168.654 159.522 168.74Q158.94 168.827 158.353 168.884Q157.767 168.942 157.179 168.971Q156.59 169 156.001 169L23.999 169Q23.4099 169 22.8214 168.971Q22.233 168.942 21.6467 168.884Q21.0604 168.827 20.4776 168.74Q19.8948 168.654 19.317 168.539Q18.7392 168.424 18.1677 168.281Q17.5962 168.138 17.0325 167.967Q16.4687 167.796 15.914 167.597Q15.3593 167.399 14.815 167.173Q14.2707 166.948 13.7381 166.696Q13.2055 166.444 12.6859 166.166Q12.1664 165.888 11.661 165.586Q11.1557 165.283 10.6659 164.955Q10.176 164.628 9.70281 164.277Q9.22961 163.926 8.77419 163.552Q8.31878 163.179 7.88226 162.783Q7.44573 162.387 7.02914 161.971Q6.61256 161.554 6.21691 161.118Q5.82127 160.681 5.44752 160.226Q5.07377 159.77 4.72282 159.297Q4.37187 158.824 4.04456 158.334Q3.71725 157.844 3.41437 157.339Q3.11149 156.834 2.83377 156.314Q2.55605 155.794 2.30416 155.262Q2.05227 154.729 1.82681 154.185Q1.60136 153.641 1.40288 153.086Q1.20441 152.531 1.03339 151.968Q0.86237 151.404 0.71922 150.832Q0.57607 150.261 0.461134 149.683Q0.346198 149.105 0.259753 148.522Q0.173308 147.94 0.115562 147.353Q0.0578157 146.767 0.0289078 146.179Q0 145.59 0 145.001L0 23.999Q0 23.4099 0.0289078 22.8214Q0.0578157 22.233 0.115562 21.6467Q0.173308 21.0604 0.259753 20.4776Q0.346198 19.8948 0.461134 19.317Q0.57607 18.7392 0.71922 18.1677Q0.86237 17.5962 1.03339 17.0325Q1.20441 16.4687 1.40288 15.914Q1.60136 15.3593 1.82681 14.815Q2.05227 14.2707 2.30416 13.7381Q2.55605 13.2055 2.83377 12.6859Q3.11149 12.1664 3.41437 11.661Q3.71725 11.1557 4.04456 10.6659Q4.37187 10.176 4.72282 9.70281Q5.07377 9.22961 5.44752 8.77419Q5.82127 8.31878 6.21691 7.88226Q6.61256 7.44573 7.02914 7.02914Q7.44573 6.61256 7.88226 6.21691Q8.31878 5.82127 8.77419 5.44752Q9.22961 5.07377 9.70281 4.72282Q10.176 4.37187 10.6659 4.04456Q11.1557 3.71725 11.661 3.41437Q12.1664 3.11149 12.6859 2.83377Q13.2055 2.55605 13.7381 2.30416Q14.2707 2.05227 14.815 1.82681Q15.3593 1.60136 15.914 1.40288Q16.4687 1.20441 17.0325 1.03339Q17.5962 0.86237 18.1677 0.71922Q18.7392 0.57607 19.317 0.461134Q19.8948 0.346198 20.4776 0.259753Q21.0604 0.173308 21.6467 0.115562Q22.233 0.0578157 22.8214 0.0289078Q23.4099 0 23.999 0Z" id="path_1" />
    <clipPath id="mask_1">
      <use xlink:href="#path_1" />
    </clipPath>
  </defs>
  <g id="Card">
    <g id="Mask">
      <use stroke="none" fill="#FFFFFF" xlink:href="#path_1" fill-rule="evenodd" filter="url(#filter_1)" />
    </g>
    <g clip-path="url(#mask_1)">
      <path d="M0 81.5C0 36.4888 30.4446 0 68 0C105.555 0 136 36.4888 136 81.5C136 126.511 105.555 163 68 163C30.4446 163 0 126.511 0 81.5Z" transform="translate(-17 107.699005)" id="Ellipse" fill="#2F6E55" fill-rule="evenodd" stroke="none" />
      <path d="M0 95C0 42.5329 32.2355 0 72 0C111.764 0 144 42.5329 144 95C144 147.467 111.764 190 72 190C32.2355 190 0 147.467 0 95Z" transform="translate(75 -144.04422)" id="Ellipse-Copy" fill="#2F6E55" fill-rule="evenodd" stroke="none" />
    </g>
  </g>
</svg>