<?xml version="1.0" encoding="utf-8"?>
<svg width="339px" height="447px" viewbox="0 0 339 447" version="1.1" xmlns:xlink="http://www.w3.org/1999/xlink" xmlns="http://www.w3.org/2000/svg">
  <defs>
    <path d="M29.999 0L309.001 0Q309.737 0 310.473 0.0361351Q311.209 0.0722702 311.941 0.144453Q312.674 0.216636 313.403 0.324694Q314.131 0.432751 314.853 0.576422Q315.576 0.720093 316.29 0.899032Q317.005 1.07797 317.709 1.29175Q318.414 1.50552 319.107 1.75362Q319.801 2.00172 320.481 2.28354Q321.161 2.56536 321.827 2.88022Q322.493 3.19509 323.142 3.54224Q323.792 3.8894 324.424 4.268Q325.055 4.6466 325.668 5.05574Q326.28 5.46488 326.871 5.90358Q327.463 6.34227 328.032 6.80946Q328.601 7.27665 329.147 7.77121Q329.693 8.26577 330.214 8.7865Q330.734 9.30724 331.229 9.8529Q331.723 10.3986 332.191 10.9678Q332.658 11.5371 333.096 12.1286Q333.535 12.7201 333.944 13.3324Q334.353 13.9448 334.732 14.5764Q335.111 15.2081 335.458 15.8576Q335.805 16.507 336.12 17.1728Q336.435 17.8385 336.716 18.5189Q336.998 19.1993 337.246 19.8926Q337.494 20.586 337.708 21.2908Q337.922 21.9955 338.101 22.7098Q338.28 23.4242 338.424 24.1465Q338.567 24.8688 338.675 25.5972Q338.783 26.3257 338.856 27.0586Q338.928 27.7915 338.964 28.527Q339 29.2626 339 29.999L339 417.001Q339 417.737 338.964 418.473Q338.928 419.209 338.856 419.941Q338.783 420.674 338.675 421.403Q338.567 422.131 338.424 422.853Q338.28 423.576 338.101 424.29Q337.922 425.004 337.708 425.709Q337.494 426.414 337.246 427.107Q336.998 427.801 336.716 428.481Q336.435 429.161 336.12 429.827Q335.805 430.493 335.458 431.142Q335.111 431.792 334.732 432.424Q334.353 433.055 333.944 433.668Q333.535 434.28 333.096 434.871Q332.658 435.463 332.191 436.032Q331.723 436.601 331.229 437.147Q330.734 437.693 330.214 438.213Q329.693 438.734 329.147 439.229Q328.601 439.723 328.032 440.191Q327.463 440.658 326.871 441.096Q326.28 441.535 325.668 441.944Q325.055 442.353 324.424 442.732Q323.792 443.111 323.142 443.458Q322.493 443.805 321.827 444.12Q321.161 444.435 320.481 444.716Q319.801 444.998 319.107 445.246Q318.414 445.494 317.709 445.708Q317.005 445.922 316.29 446.101Q315.576 446.28 314.853 446.424Q314.131 446.567 313.403 446.675Q312.674 446.783 311.941 446.856Q311.208 446.928 310.473 446.964Q309.737 447 309.001 447L29.999 447Q29.2626 447 28.527 446.964Q27.7915 446.928 27.0586 446.856Q26.3257 446.783 25.5972 446.675Q24.8688 446.567 24.1465 446.424Q23.4242 446.28 22.7098 446.101Q21.9955 445.922 21.2907 445.708Q20.586 445.494 19.8926 445.246Q19.1993 444.998 18.5189 444.716Q17.8385 444.435 17.1728 444.12Q16.507 443.805 15.8576 443.458Q15.2081 443.111 14.5764 442.732Q13.9448 442.353 13.3324 441.944Q12.7201 441.535 12.1286 441.096Q11.5371 440.658 10.9678 440.191Q10.3986 439.723 9.8529 439.229Q9.30724 438.734 8.7865 438.213Q8.26577 437.693 7.77121 437.147Q7.27665 436.601 6.80946 436.032Q6.34227 435.463 5.90358 434.871Q5.46488 434.28 5.05574 433.668Q4.6466 433.055 4.268 432.424Q3.8894 431.792 3.54224 431.142Q3.19509 430.493 2.88022 429.827Q2.56536 429.161 2.28354 428.481Q2.00172 427.801 1.75362 427.107Q1.50552 426.414 1.29175 425.709Q1.07797 425.004 0.899032 424.29Q0.720093 423.576 0.576422 422.853Q0.432751 422.131 0.324694 421.403Q0.216636 420.674 0.144453 419.941Q0.0722702 419.209 0.0361351 418.473Q0 417.737 0 417.001L0 29.999Q0 29.2626 0.0361351 28.527Q0.0722702 27.7915 0.144453 27.0586Q0.216636 26.3257 0.324694 25.5972Q0.432751 24.8688 0.576422 24.1465Q0.720093 23.4242 0.899032 22.7098Q1.07797 21.9955 1.29175 21.2907Q1.50552 20.586 1.75362 19.8926Q2.00172 19.1993 2.28354 18.5189Q2.56536 17.8385 2.88022 17.1728Q3.19509 16.507 3.54224 15.8576Q3.8894 15.2081 4.268 14.5764Q4.6466 13.9448 5.05574 13.3324Q5.46488 12.7201 5.90358 12.1286Q6.34227 11.5371 6.80946 10.9678Q7.27665 10.3986 7.77121 9.8529Q8.26577 9.30724 8.7865 8.7865Q9.30724 8.26577 9.8529 7.77121Q10.3986 7.27665 10.9678 6.80946Q11.5371 6.34227 12.1286 5.90358Q12.7201 5.46488 13.3324 5.05574Q13.9448 4.6466 14.5764 4.268Q15.2081 3.8894 15.8576 3.54224Q16.507 3.19509 17.1728 2.88022Q17.8385 2.56536 18.5189 2.28354Q19.1993 2.00172 19.8926 1.75362Q20.586 1.50552 21.2908 1.29175Q21.9955 1.07797 22.7098 0.899032Q23.4242 0.720093 24.1465 0.576422Q24.8688 0.432751 25.5972 0.324694Q26.3257 0.216636 27.0586 0.144453Q27.7915 0.0722702 28.527 0.0361351Q29.2626 0 29.999 0Z" id="path_1" />
    <clipPath id="mask_1">
      <use xlink:href="#path_1" />
    </clipPath>
  </defs>
  <path d="M29.999 0L309.001 0Q309.737 0 310.473 0.0361351Q311.209 0.0722702 311.941 0.144453Q312.674 0.216636 313.403 0.324694Q314.131 0.432751 314.853 0.576422Q315.576 0.720093 316.29 0.899032Q317.005 1.07797 317.709 1.29175Q318.414 1.50552 319.107 1.75362Q319.801 2.00172 320.481 2.28354Q321.161 2.56536 321.827 2.88022Q322.493 3.19509 323.142 3.54224Q323.792 3.8894 324.424 4.268Q325.055 4.6466 325.668 5.05574Q326.28 5.46488 326.871 5.90358Q327.463 6.34227 328.032 6.80946Q328.601 7.27665 329.147 7.77121Q329.693 8.26577 330.214 8.7865Q330.734 9.30724 331.229 9.8529Q331.723 10.3986 332.191 10.9678Q332.658 11.5371 333.096 12.1286Q333.535 12.7201 333.944 13.3324Q334.353 13.9448 334.732 14.5764Q335.111 15.2081 335.458 15.8576Q335.805 16.507 336.12 17.1728Q336.435 17.8385 336.716 18.5189Q336.998 19.1993 337.246 19.8926Q337.494 20.586 337.708 21.2908Q337.922 21.9955 338.101 22.7098Q338.28 23.4242 338.424 24.1465Q338.567 24.8688 338.675 25.5972Q338.783 26.3257 338.856 27.0586Q338.928 27.7915 338.964 28.527Q339 29.2626 339 29.999L339 417.001Q339 417.737 338.964 418.473Q338.928 419.209 338.856 419.941Q338.783 420.674 338.675 421.403Q338.567 422.131 338.424 422.853Q338.28 423.576 338.101 424.29Q337.922 425.004 337.708 425.709Q337.494 426.414 337.246 427.107Q336.998 427.801 336.716 428.481Q336.435 429.161 336.12 429.827Q335.805 430.493 335.458 431.142Q335.111 431.792 334.732 432.424Q334.353 433.055 333.944 433.668Q333.535 434.28 333.096 434.871Q332.658 435.463 332.191 436.032Q331.723 436.601 331.229 437.147Q330.734 437.693 330.214 438.213Q329.693 438.734 329.147 439.229Q328.601 439.723 328.032 440.191Q327.463 440.658 326.871 441.096Q326.28 441.535 325.668 441.944Q325.055 442.353 324.424 442.732Q323.792 443.111 323.142 443.458Q322.493 443.805 321.827 444.12Q321.161 444.435 320.481 444.716Q319.801 444.998 319.107 445.246Q318.414 445.494 317.709 445.708Q317.005 445.922 316.29 446.101Q315.576 446.28 314.853 446.424Q314.131 446.567 313.403 446.675Q312.674 446.783 311.941 446.856Q311.208 446.928 310.473 446.964Q309.737 447 309.001 447L29.999 447Q29.2626 447 28.527 446.964Q27.7915 446.928 27.0586 446.856Q26.3257 446.783 25.5972 446.675Q24.8688 446.567 24.1465 446.424Q23.4242 446.28 22.7098 446.101Q21.9955 445.922 21.2907 445.708Q20.586 445.494 19.8926 445.246Q19.1993 444.998 18.5189 444.716Q17.8385 444.435 17.1728 444.12Q16.507 443.805 15.8576 443.458Q15.2081 443.111 14.5764 442.732Q13.9448 442.353 13.3324 441.944Q12.7201 441.535 12.1286 441.096Q11.5371 440.658 10.9678 440.191Q10.3986 439.723 9.8529 439.229Q9.30724 438.734 8.7865 438.213Q8.26577 437.693 7.77121 437.147Q7.27665 436.601 6.80946 436.032Q6.34227 435.463 5.90358 434.871Q5.46488 434.28 5.05574 433.668Q4.6466 433.055 4.268 432.424Q3.8894 431.792 3.54224 431.142Q3.19509 430.493 2.88022 429.827Q2.56536 429.161 2.28354 428.481Q2.00172 427.801 1.75362 427.107Q1.50552 426.414 1.29175 425.709Q1.07797 425.004 0.899032 424.29Q0.720093 423.576 0.576422 422.853Q0.432751 422.131 0.324694 421.403Q0.216636 420.674 0.144453 419.941Q0.0722702 419.209 0.0361351 418.473Q0 417.737 0 417.001L0 29.999Q0 29.2626 0.0361351 28.527Q0.0722702 27.7915 0.144453 27.0586Q0.216636 26.3257 0.324694 25.5972Q0.432751 24.8688 0.576422 24.1465Q0.720093 23.4242 0.899032 22.7098Q1.07797 21.9955 1.29175 21.2907Q1.50552 20.586 1.75362 19.8926Q2.00172 19.1993 2.28354 18.5189Q2.56536 17.8385 2.88022 17.1728Q3.19509 16.507 3.54224 15.8576Q3.8894 15.2081 4.268 14.5764Q4.6466 13.9448 5.05574 13.3324Q5.46488 12.7201 5.90358 12.1286Q6.34227 11.5371 6.80946 10.9678Q7.27665 10.3986 7.77121 9.8529Q8.26577 9.30724 8.7865 8.7865Q9.30724 8.26577 9.8529 7.77121Q10.3986 7.27665 10.9678 6.80946Q11.5371 6.34227 12.1286 5.90358Q12.7201 5.46488 13.3324 5.05574Q13.9448 4.6466 14.5764 4.268Q15.2081 3.8894 15.8576 3.54224Q16.507 3.19509 17.1728 2.88022Q17.8385 2.56536 18.5189 2.28354Q19.1993 2.00172 19.8926 1.75362Q20.586 1.50552 21.2908 1.29175Q21.9955 1.07797 22.7098 0.899032Q23.4242 0.720093 24.1465 0.576422Q24.8688 0.432751 25.5972 0.324694Q26.3257 0.216636 27.0586 0.144453Q27.7915 0.0722702 28.527 0.0361351Q29.2626 0 29.999 0Z" id="Mask" fill="#FFFFFF" fill-rule="evenodd" stroke="none" />
  <g clip-path="url(#mask_1)">
    <g id="Group" transform="translate(-104.29997 -113.16162)">
      <path d="M0 92C0 41.1898 108.571 0 242.5 0C376.429 0 485 41.1898 485 92C485 142.81 376.429 184 242.5 184C108.571 184 0 142.81 0 92Z" transform="matrix(0.98162717 0.190809 -0.190809 0.98162717 141.40887 0)" id="Ellipse" fill="#FCBE4A" fill-rule="evenodd" stroke="none" />
      <path d="M0 107.5C0 48.1294 48.1294 0 107.5 0C166.871 0 215 48.1294 215 107.5C215 166.871 166.871 215 107.5 215C48.1294 215 0 166.871 0 107.5Z" transform="matrix(0.9659258 0.25881904 -0.25881904 0.9659258 55.646095 449.16162)" id="Ellipse-Copy" fill="#FCBE4A" fill-rule="evenodd" stroke="none" />
    </g>
  </g>
</svg>